<svg xmlns="http://www.w3.org/2000/svg" width="200" height="200"><circle cx="100" cy="100" r="70" fill="#795548"/><circle cx="70" cy="85" r="25" fill="#fff"/><circle cx="130" cy="85" r="25" fill="#fff"/><circle cx="70" cy="85" r="12" fill="#424242"/><circle cx="130" cy="85" r="12" fill="#424242"/><circle cx="65" cy="80" r="5" fill="#fff"/><circle cx="125" cy="80" r="5" fill="#fff"/><path fill="#FF9800" d="m100 105-10 15h20z"/><path fill="none" stroke="#5D4037" stroke-width="5" d="M45 65q25-10 50 0M105 65q25-10 50 0"/><path fill="#5D4037" d="M70 30 55 60h30zM130 30l-15 30h30z"/><ellipse cx="100" cy="130" fill="#A1887F" rx="40" ry="30"/><path fill="#FF9800" d="m85 170-10 15h20ZM115 170l-10 15h20Z"/></svg>