<svg xmlns="http://www.w3.org/2000/svg" width="300" height="200"><rect width="300" height="200" fill="#E3F2FD" rx="20" ry="20"/><circle cx="50" cy="50" r="30" fill="#FFEB3B"/><g stroke="#FFC107" stroke-width="2"><path d="M50 10V0M50 100V90M10 50H0M100 50H90M22 22l-7-7M78 78l7 7M22 78l-7 7M78 22l7-7"/></g><path fill="none" stroke="#FF5252" stroke-width="10" d="M150 180c0-60 50-60 50 0"/><path fill="none" stroke="#FF9800" stroke-width="10" d="M150 180c0-70 50-70 50 0"/><path fill="none" stroke="#FFEB3B" stroke-width="10" d="M150 180c0-80 50-80 50 0"/><path fill="none" stroke="#4CAF50" stroke-width="10" d="M150 180c0-90 50-90 50 0"/><path fill="none" stroke="#2196F3" stroke-width="10" d="M150 180c0-100 50-100 50 0"/><path fill="none" stroke="#9C27B0" stroke-width="10" d="M150 180c0-110 50-110 50 0"/><g fill="#fff"><ellipse cx="260" cy="40" rx="30" ry="20"/><ellipse cx="230" cy="40" rx="20" ry="15"/><ellipse cx="290" cy="40" rx="20" ry="15"/><ellipse cx="100" cy="30" rx="25" ry="15"/><ellipse cx="80" cy="30" rx="15" ry="10"/><ellipse cx="120" cy="30" rx="15" ry="10"/></g><path fill="#795548" d="M40 150h10v30H40z"/><path fill="#4CAF50" d="m45 110-20 40h40z"/><path fill="#388E3C" d="m45 130-15 30h30z"/><path fill="#795548" d="M250 150h10v30h-10z"/><path fill="#4CAF50" d="m255 110-20 40h40z"/><path fill="#388E3C" d="m255 130-15 30h30z"/><g transform="translate(150 150)"><path fill="#7CB342" d="M-2 0h4v20h-4z"/><circle r="8" fill="#E91E63"/><circle cx="7" cy="-3" r="5" fill="#EC407A"/><circle cx="3" cy="-7" r="5" fill="#EC407A"/><circle cx="-3" cy="-7" r="5" fill="#EC407A"/><circle cx="-7" cy="-3" r="5" fill="#EC407A"/><circle cx="-7" cy="3" r="5" fill="#EC407A"/><circle cx="-3" cy="7" r="5" fill="#EC407A"/><circle cx="3" cy="7" r="5" fill="#EC407A"/><circle cx="7" cy="3" r="5" fill="#EC407A"/><circle r="4" fill="#FFC107"/></g><g transform="translate(180 160)"><path fill="#7CB342" d="M-2 0h4v15h-4z"/><circle r="6" fill="#9C27B0"/><circle cx="5" cy="-2" r="4" fill="#AB47BC"/><circle cx="2" cy="-5" r="4" fill="#AB47BC"/><circle cx="-2" cy="-5" r="4" fill="#AB47BC"/><circle cx="-5" cy="-2" r="4" fill="#AB47BC"/><circle cx="-5" cy="2" r="4" fill="#AB47BC"/><circle cx="-2" cy="5" r="4" fill="#AB47BC"/><circle cx="2" cy="5" r="4" fill="#AB47BC"/><circle cx="5" cy="2" r="4" fill="#AB47BC"/><circle r="3" fill="#FFC107"/></g><g transform="translate(120 160)"><path fill="#7CB342" d="M-2 0h4v15h-4z"/><circle r="6" fill="#2196F3"/><circle cx="5" cy="-2" r="4" fill="#64B5F6"/><circle cx="2" cy="-5" r="4" fill="#64B5F6"/><circle cx="-2" cy="-5" r="4" fill="#64B5F6"/><circle cx="-5" cy="-2" r="4" fill="#64B5F6"/><circle cx="-5" cy="2" r="4" fill="#64B5F6"/><circle cx="-2" cy="5" r="4" fill="#64B5F6"/><circle cx="2" cy="5" r="4" fill="#64B5F6"/><circle cx="5" cy="2" r="4" fill="#64B5F6"/><circle r="3" fill="#FFC107"/></g></svg>