<?xml version="1.0" encoding="UTF-8"?>
<svg width="200px" height="200px" viewBox="0 0 200 200" xmlns="http://www.w3.org/2000/svg">
  <!-- Owl Body -->
  <circle cx="100" cy="100" r="70" fill="#795548" />
  
  <!-- Owl Eyes -->
  <circle cx="70" cy="85" r="25" fill="white" />
  <circle cx="130" cy="85" r="25" fill="white" />
  
  <!-- Owl Pupils -->
  <circle cx="70" cy="85" r="12" fill="#424242" />
  <circle cx="130" cy="85" r="12" fill="#424242" />
  
  <!-- Owl Eye Shine -->
  <circle cx="65" cy="80" r="5" fill="white" />
  <circle cx="125" cy="80" r="5" fill="white" />
  
  <!-- Owl Beak -->
  <polygon points="100,105 90,120 110,120" fill="#FF9800" />
  
  <!-- Owl Eyebrows -->
  <path d="M45,65 Q70,55 95,65" stroke="#5D4037" stroke-width="5" fill="none" />
  <path d="M105,65 Q130,55 155,65" stroke="#5D4037" stroke-width="5" fill="none" />
  
  <!-- Owl Ears/Horns -->
  <polygon points="70,30 55,60 85,60" fill="#5D4037" />
  <polygon points="130,30 115,60 145,60" fill="#5D4037" />
  
  <!-- Owl Belly -->
  <ellipse cx="100" cy="130" rx="40" ry="30" fill="#A1887F" />
  
  <!-- Owl Feet -->
  <path d="M85,170 L75,185 L95,185 Z" fill="#FF9800" />
  <path d="M115,170 L105,185 L125,185 Z" fill="#FF9800" />
</svg> 